<svg xmlns="http://www.w3.org/2000/svg" width="14" height="8" viewBox="0 0 14 8">
  <g id="accordian_red_arrow" data-name="accordian red arrow" transform="translate(0)">
    <path id="Path_476" data-name="Path 476" d="M210.591,209.282a1.3,1.3,0,0,1-.745-.338l-5.627-5.122a1.45,1.45,0,0,1-.5-.977,1.482,1.482,0,0,1,.316-1.058,1.313,1.313,0,0,1,.936-.5,1.293,1.293,0,0,1,.986.37l4.756,4.331,4.756-4.331a1.294,1.294,0,0,1,.986-.37,1.313,1.313,0,0,1,.936.495,1.482,1.482,0,0,1,.316,1.058,1.45,1.45,0,0,1-.5.977l-5.627,5.122a1.289,1.289,0,0,1-1,.338Z" transform="translate(-203.717 -201.288)" fill="#eb4945"/>
  </g>
</svg>
