<svg xmlns="http://www.w3.org/2000/svg" width="30.017" height="30.017" viewBox="0 0 25.773 30.279">
  <g id="billing" transform="translate(-139.991 -35.069)">
    <path id="Path_156" data-name="Path 156" d="M163.294,65.348H142.461a2.481,2.481,0,0,1-2.47-2.488V38.174a2.488,2.488,0,0,1,1.341-2.213,2.435,2.435,0,0,1,2.532.167A1.706,1.706,0,0,0,145,36.5a1.912,1.912,0,0,0,1.33-.509,4.13,4.13,0,0,1,5.206,0,1.992,1.992,0,0,0,2.661,0,4.135,4.135,0,0,1,5.21,0,1.912,1.912,0,0,0,1.331.509,1.715,1.715,0,0,0,1.148-.376,2.438,2.438,0,0,1,2.532-.167,2.487,2.487,0,0,1,1.341,2.214V62.86a2.481,2.481,0,0,1-2.47,2.488Zm-20.831-27.5a.289.289,0,0,0-.134.036.316.316,0,0,0-.175.293V62.86a.316.316,0,0,0,.307.324h20.833a.317.317,0,0,0,.307-.324V38.173a.315.315,0,0,0-.175-.294.264.264,0,0,0-.292.017,3.883,3.883,0,0,1-2.39.769,4.026,4.026,0,0,1-2.605-.924,1.995,1.995,0,0,0-2.663,0,4.131,4.131,0,0,1-5.208,0,1.989,1.989,0,0,0-2.658,0,4.022,4.022,0,0,1-2.6.924,3.873,3.873,0,0,1-2.379-.767.267.267,0,0,0-.162-.053Z" transform="translate(0)" fill="#fff"/>
    <path id="Path_157" data-name="Path 157" d="M226.369,190.313a1.3,1.3,0,1,1-1.3-1.3,1.3,1.3,0,0,1,1.3,1.3" transform="translate(-78.607 -144.433)" fill="#fff"/>
    <path id="Path_158" data-name="Path 158" d="M293.774,194.663h-8.963a1.082,1.082,0,1,1,0-2.163h8.963a1.082,1.082,0,1,1,0,2.163Z" transform="translate(-134.856 -147.702)" fill="#fff"/>
    <path id="Path_159" data-name="Path 159" d="M226.369,277.813a1.3,1.3,0,1,1-1.3-1.3,1.3,1.3,0,0,1,1.3,1.3" transform="translate(-78.607 -226.525)" fill="#fff"/>
    <path id="Path_160" data-name="Path 160" d="M293.774,282.163h-8.963a1.082,1.082,0,1,1,0-2.163h8.963a1.082,1.082,0,1,1,0,2.163Z" transform="translate(-134.856 -229.794)" fill="#fff"/>
    <path id="Path_161" data-name="Path 161" d="M226.369,365.313a1.3,1.3,0,1,1-1.3-1.3,1.3,1.3,0,0,1,1.3,1.3" transform="translate(-78.607 -308.617)" fill="#fff"/>
    <path id="Path_162" data-name="Path 162" d="M293.774,369.663h-8.963a1.082,1.082,0,1,1,0-2.163h8.963a1.082,1.082,0,1,1,0,2.163Z" transform="translate(-134.856 -311.886)" fill="#fff"/>
  </g>
</svg>
