<svg xmlns="http://www.w3.org/2000/svg" width="17.332" height="17.313" viewBox="0 0 17.332 17.313">
  <g id="calender" transform="translate(-98 -28.002)">
    <path id="Path_559" data-name="Path 559" d="M103.2,31.179a.867.867,0,0,1-1.733,0V28.869a.867.867,0,1,1,1.733,0Zm8.473-2.311a.867.867,0,0,0-1.733,0v2.311a.867.867,0,0,0,1.733,0Zm3.659,2.2V44.371a.949.949,0,0,1-.963.944H98.963A.949.949,0,0,1,98,44.371V31.064a.949.949,0,0,1,.963-.944h1.926V31.18a1.445,1.445,0,1,0,2.889,0V30.12h5.585V31.18a1.445,1.445,0,1,0,2.889,0V30.12h2.1a.979.979,0,0,1,.982.944Zm-1.541,3.466a.383.383,0,0,0-.385-.366H99.926a.37.37,0,0,0-.385.366v8.9a.383.383,0,0,0,.385.366h13.48a.37.37,0,0,0,.385-.366Z" fill="#344767"/>
  </g>
</svg>
