<svg xmlns="http://www.w3.org/2000/svg" width="30.017" height="30.017" viewBox="0 0 30.017 30.017">
  <g id="Dashboard" transform="translate(-105 -35)">
    <path id="Path_99" data-name="Path 99" d="M381.018,35H373.7a3.216,3.216,0,0,0-3.216,3.216v7.322a3.216,3.216,0,0,0,3.216,3.216h7.322a3.216,3.216,0,0,0,3.216-3.216V38.216A3.216,3.216,0,0,0,381.018,35Zm1.072,10.538a1.072,1.072,0,0,1-1.072,1.072H373.7a1.072,1.072,0,0,1-1.072-1.072V38.216a1.072,1.072,0,0,1,1.072-1.072h7.322a1.072,1.072,0,0,1,1.072,1.072Z" transform="translate(-249.217)" fill="#fff"/>
    <path id="Path_100" data-name="Path 100" d="M115.538,35h-7.322A3.216,3.216,0,0,0,105,38.216v7.322a3.216,3.216,0,0,0,3.216,3.216h7.322a3.216,3.216,0,0,0,3.216-3.216V38.216A3.216,3.216,0,0,0,115.538,35Zm1.072,10.538a1.072,1.072,0,0,1-1.072,1.072h-7.322a1.072,1.072,0,0,1-1.072-1.072V38.216a1.072,1.072,0,0,1,1.072-1.072h7.322a1.072,1.072,0,0,1,1.072,1.072Z" fill="#fff"/>
    <path id="Path_101" data-name="Path 101" d="M115.538,300.48h-7.322A3.216,3.216,0,0,0,105,303.7v7.322a3.216,3.216,0,0,0,3.216,3.216h7.322a3.216,3.216,0,0,0,3.216-3.216V303.7a3.216,3.216,0,0,0-3.216-3.216Zm1.072,10.538a1.072,1.072,0,0,1-1.072,1.072h-7.322a1.072,1.072,0,0,1-1.072-1.072V303.7a1.072,1.072,0,0,1,1.072-1.072h7.322a1.072,1.072,0,0,1,1.072,1.072Z" transform="translate(0 -249.217)" fill="#fff"/>
    <path id="Path_102" data-name="Path 102" d="M399.741,324.019H396.16v-3.57a1.072,1.072,0,1,0-2.144,0v3.57h-3.57a1.072,1.072,0,1,0,0,2.144h3.57v3.581a1.072,1.072,0,0,0,2.144,0v-3.581h3.581a1.072,1.072,0,0,0,0-2.144Z" transform="translate(-266.954 -266.957)" fill="#fff"/>
  </g>
</svg>
