<svg id="delete" xmlns="http://www.w3.org/2000/svg" width="19.397" height="20.143" viewBox="0 0 19.397 20.143">
  <path id="Path_204" data-name="Path 204" d="M161.4,166.25l1.329,14.616h0a.746.746,0,0,0,.743.678h11.937a.746.746,0,0,0,.743-.678l1.329-14.616Zm5.1,13.054-.048,0a.559.559,0,0,1-.557-.513l-.746-8.953a.56.56,0,0,1,1.115-.093l.746,8.953a.56.56,0,0,1-.511.6Zm3.5-.557a.56.56,0,0,1-1.119,0v-8.953a.56.56,0,0,1,1.119,0Zm2.982.047a.559.559,0,0,1-.557.513l-.047,0a.56.56,0,0,1-.511-.6l.746-8.953a.56.56,0,0,1,1.115.093Z" transform="translate(-159.742 -161.401)" fill="#eb4945"/>
  <path id="Path_205" data-name="Path 205" d="M141.152,54.738h-5.222V53.246a.746.746,0,0,0-.746-.746h-5.968a.746.746,0,0,0-.746.746v1.492h-5.222a.746.746,0,1,0,0,1.492h17.905a.746.746,0,1,0,0-1.492Z" transform="translate(-122.5 -52.5)" fill="#eb4945"/>
</svg>
