<svg xmlns="http://www.w3.org/2000/svg" width="20.167" height="20.144" viewBox="0 0 20.167 20.144">
  <g id="edit" transform="translate(0)">
    <path id="Path_246" data-name="Path 246" d="M114.089,401.8l3.555,3.555-3.92,1.3h0a.924.924,0,0,1-.238.037.744.744,0,0,1-.707-.982Z" transform="translate(-112.741 -386.551)" fill="#344767"/>
    <path id="Path_247" data-name="Path 247" d="M164.72,102.995,176.685,91.03l3.935,3.935-11.965,11.965Z" transform="translate(-162.51 -88.99)" fill="#344767"/>
    <path id="Path_248" data-name="Path 248" d="M475.95,46.024A2.2,2.2,0,0,1,475.3,47.6l-.35.357-3.935-3.935.35-.357a2.28,2.28,0,0,1,3.154,0l.781.781a2.21,2.21,0,0,1,.655,1.577Z" transform="translate(-455.783 -43.033)" fill="#344767"/>
  </g>
</svg>
