<svg xmlns="http://www.w3.org/2000/svg" width="15.016" height="19.916" viewBox="0 0 15.016 19.916">
  <g id="green_top_arrow" data-name="green top arrow" transform="translate(0 19.916) rotate(-90)">
    <path id="Path_516" data-name="Path 516" d="M19.539,8.305l-6.381,6.381a1.109,1.109,0,0,1-1.569-1.569l4.5-4.5H1.109a1.109,1.109,0,1,1,0-2.218H16.067L11.59,1.9a1.1,1.1,0,0,1,0-1.569,1.143,1.143,0,0,1,.8-.335,1.093,1.093,0,0,1,.795.335l6.4,6.4a1.143,1.143,0,0,1,.335.795,1.421,1.421,0,0,1-.377.774Z" transform="translate(0 0)" fill="#4caf50"/>
  </g>
</svg>
