<svg xmlns="http://www.w3.org/2000/svg" width="19.771" height="20.014" viewBox="0 0 19.771 20.014">
  <g id="home_header" data-name="home header" transform="translate(-107.91 -34.928)">
    <path id="Path_103" data-name="Path 103" d="M110.042,54.941H125.55a2.368,2.368,0,0,0,2.124-2.547V43.91a2.767,2.767,0,0,0-.76-1.958L119.6,35.676a2.539,2.539,0,0,0-3.563-.037l-7.357,6.313a2.767,2.767,0,0,0-.76,1.958v8.484a2.368,2.368,0,0,0,2.124,2.547Zm-.695-11.031a1.365,1.365,0,0,1,.3-.91l7.361-6.313a1.094,1.094,0,0,1,.778-.322,1.2,1.2,0,0,1,.843.357l7.294,6.255a1.373,1.373,0,0,1,.325.929v8.488c0,.658-.366,1.118-.695,1.118H110.042c-.329,0-.695-.46-.695-1.118Z" transform="translate(0)" fill="#a5adb9"/>
    <path id="Path_104" data-name="Path 104" d="M333.215,337.5a.715.715,0,0,0,.715-.715v-3.573a.715.715,0,1,0-1.429,0v3.573a.715.715,0,0,0,.715.715Z" transform="translate(-215.418 -285.42)" fill="#a5adb9"/>
  </g>
</svg>
