<svg xmlns="http://www.w3.org/2000/svg" width="24.132" height="18.654" viewBox="0 0 24.132 18.654">
  <g id="message" transform="translate(-1580.877 -400.673)">
    <path id="Path_518" data-name="Path 518" d="M123.366,95.493c1.673,0,6.842-4.639,11.4-9.579a2.2,2.2,0,0,0-1.54-.632H113.5a2.2,2.2,0,0,0-1.54.632c4.559,4.94,9.728,9.579,11.4,9.579Z" transform="translate(1469.578 315.391)" fill="#344767"/>
    <path id="Path_519" data-name="Path 519" d="M110.156,160.673c-2.841,0-8.638-5.642-12.066-9.263v13.281A2.208,2.208,0,0,0,100.3,166.9h19.721a2.208,2.208,0,0,0,2.205-2.206V151.41c-3.428,3.621-9.225,9.263-12.066,9.263Z" transform="translate(1482.787 252.431)" fill="#344767"/>
  </g>
</svg>
