<svg xmlns="http://www.w3.org/2000/svg" width="27.759" height="27.759" viewBox="0 0 27.759 27.759">
  <path id="New_card_added_for_order_2" data-name="New card added for order 2" d="M113.408,34.155h-2.776V31.38a.925.925,0,0,0-.925-.925h-7.4V28.6h2.776a1.853,1.853,0,0,0,1.851-1.851v-7.4a1.853,1.853,0,0,0-1.851-1.851h-7.4a1.853,1.853,0,0,0-1.851,1.851v7.4A1.853,1.853,0,0,0,97.678,28.6h2.776v1.851h-7.4a.925.925,0,0,0-.925.925v2.776H89.351A1.853,1.853,0,0,0,87.5,36.006v7.4a1.853,1.853,0,0,0,1.851,1.851h7.4A1.853,1.853,0,0,0,98.6,43.408v-7.4a1.853,1.853,0,0,0-1.851-1.851H93.977V32.3h14.8v1.851h-2.776a1.853,1.853,0,0,0-1.851,1.851v7.4a1.853,1.853,0,0,0,1.851,1.851h7.4a1.853,1.853,0,0,0,1.851-1.851v-7.4A1.853,1.853,0,0,0,113.408,34.155Zm-15.73-14.8h7.4l0,7.4h-7.4ZM96.75,43.408h-7.4v-7.4h7.4Zm16.655,0h-7.4v-7.4h7.4Z" transform="translate(-87.5 -17.5)" fill="#fff"/>
</svg>
