<svg xmlns="http://www.w3.org/2000/svg" width="24.185" height="18.391" viewBox="0 0 24.185 18.391">
  <g id="new_order" data-name="new order" transform="translate(-75.714 -71.43)">
    <path id="Path_163" data-name="Path 163" d="M99.395,74.068a.5.5,0,0,1,.448.734l-3.477,8.455A3.453,3.453,0,0,1,95.1,84.633a4.288,4.288,0,0,1-1.87.237l-10.3,0v.965a.918.918,0,0,0,.919.919H96.946a.5.5,0,0,1,0,1.008H94.934a1.281,1.281,0,1,1-2.037,0H86.524a1.281,1.281,0,1,1-2.037,0h-.632a1.935,1.935,0,0,1-1.927-1.927V84.414L79.251,72.438H76.217a.5.5,0,0,1,0-1.008l3.435,0a.5.5,0,0,1,.49.394l.5,2.242H99.395Z" transform="translate(0)" fill="#fff" fill-rule="evenodd"/>
  </g>
</svg>
