<svg xmlns="http://www.w3.org/2000/svg" width="30.21" height="33.993" viewBox="0 0 30.21 33.993">
  <g id="notification" transform="translate(-136.504 -39.2)">
    <path id="Path_433" data-name="Path 433" d="M137.7,64.853a4.212,4.212,0,0,0,3,1.225h21.779a4.212,4.212,0,0,0,3-1.225,4.139,4.139,0,0,0,1.225-3.083,4.225,4.225,0,0,0-1.384-3.044l-.988-.87a1.854,1.854,0,0,1-.593-1.384V51.651a13.218,13.218,0,0,0-3.083-8.3,11.363,11.363,0,0,0-8.775-4.15.588.588,0,0,0-.277.039.985.985,0,0,0-.316-.039,11.253,11.253,0,0,0-8.735,4.111,13,13,0,0,0-3.083,8.3v4.822a2.014,2.014,0,0,1-.593,1.384l-.988.87a4.226,4.226,0,0,0-1.384,3.044,3.993,3.993,0,0,0,1.186,3.122Zm1.739-4.387.988-.87a4.25,4.25,0,0,0,1.384-3.122V51.651a9.79,9.79,0,0,1,9.486-10.04.588.588,0,0,0,.277-.039.675.675,0,0,0,.277.039,9.79,9.79,0,0,1,9.486,10.04v4.822a4.249,4.249,0,0,0,1.384,3.122l.988.87a1.77,1.77,0,0,1,.593,1.344,2.048,2.048,0,0,1-.553,1.384,1.853,1.853,0,0,1-1.3.514H140.7a1.729,1.729,0,0,1-1.3-.553,1.975,1.975,0,0,1-.553-1.384,1.633,1.633,0,0,1,.593-1.3Z" fill="#fff"/>
    <path id="Path_434" data-name="Path 434" d="M282.7,429.585a2.965,2.965,0,1,1-5.929,0,1.186,1.186,0,0,0-2.372,0,5.336,5.336,0,1,0,10.673,0,1.186,1.186,0,0,0-2.372,0Z" transform="translate(-128.161 -361.728)" fill="#fff"/>
  </g>
</svg>
