<svg xmlns="http://www.w3.org/2000/svg" width="24.092" height="24.093" viewBox="0 0 24.092 24.093">
  <g id="noun-expand-1036951" transform="translate(104.622 41.422)">
    <path id="Path_554" data-name="Path 554" d="M132.426,61.579a.926.926,0,0,0-.83.926V66.83a.927.927,0,1,0,1.853,0V64.735l5.212,5.212a.927.927,0,1,0,1.313-1.3l-5.212-5.212h2.085a.927.927,0,1,0,0-1.853h-4.324a.9.9,0,0,0-.1,0Zm17.914,0a.928.928,0,1,0,.1,1.853h3.4v3.4a.927.927,0,1,0,1.853,0V62.506a.926.926,0,0,0-.926-.926h-4.324a.9.9,0,0,0-.1,0Zm1.535,2.77a.928.928,0,0,0-.55.28l-4.015,4.015a.927.927,0,1,0,1.313,1.3l4.015-4.015a.927.927,0,0,0-.763-1.583ZM139.211,77.013a.926.926,0,0,0-.55.28L133.449,82.5V80.42a.927.927,0,1,0-1.853,0v4.324a.926.926,0,0,0,.926.926h4.324a.927.927,0,1,0,0-1.853h-2.095l5.222-5.222a.927.927,0,0,0-.762-1.583Zm8.648,0a.927.927,0,0,0-.55,1.583l5.222,5.222h-2.095a.927.927,0,1,0,0,1.853h4.324a.926.926,0,0,0,.926-.926V80.42a.927.927,0,1,0-1.853,0V82.5l-5.212-5.212a.926.926,0,0,0-.762-.28Z" transform="translate(-236.218 -103)" fill="#344767"/>
  </g>
</svg>
