<svg xmlns="http://www.w3.org/2000/svg" width="30.017" height="30.017" viewBox="0 0 25.87 30.114">
  <g id="profile" transform="translate(-139.529 -35)">
    <path id="Path_471" data-name="Path 471" d="M227.208,43.6a8.614,8.614,0,1,0-2.523,6.081A8.6,8.6,0,0,0,227.208,43.6Zm-15.057,0a6.459,6.459,0,1,1,1.892,4.561A6.453,6.453,0,0,1,212.151,43.6Z" transform="translate(-66.14)" fill="#fff"/>
    <path id="Path_472" data-name="Path 472" d="M157.849,349.65h-10.77a7.559,7.559,0,0,0-7.55,7.55,3.226,3.226,0,0,0,3.226,3.226h19.417A3.226,3.226,0,0,0,165.4,357.2a7.559,7.559,0,0,0-7.55-7.55Zm4.324,8.625H142.755a1.075,1.075,0,0,1-1.075-1.075,5.406,5.406,0,0,1,5.4-5.4h10.77a5.406,5.406,0,0,1,5.4,5.4,1.075,1.075,0,0,1-1.075,1.075Z" transform="translate(0 -295.313)" fill="#fff"/>
  </g>
</svg>
