<svg xmlns="http://www.w3.org/2000/svg" width="26.88" height="24.108" viewBox="0 0 26.88 24.108">
  <path id="Salary" d="M100.809,73.289h21.26a.448.448,0,0,1,.448.448v1.326a.448.448,0,0,1-.448.448h-21.26a.448.448,0,0,1-.448-.448V73.737A.448.448,0,0,1,100.809,73.289Zm10.817-19.259,11.164,5.194a.447.447,0,0,1-.187.853H100.276a.448.448,0,0,1-.162-.866l11.139-5.182a.447.447,0,0,1,.375,0ZM98.448,60.442h25.984a.448.448,0,0,1,.448.448v1.326a.448.448,0,0,1-.448.448H98.448A.448.448,0,0,1,98,62.216V60.89a.448.448,0,0,1,.448-.448Zm4.592,2.587h2.379a.448.448,0,0,1,.448.448l.238,8.992a.447.447,0,0,1-.436.457l-2.869,0a.448.448,0,0,1-.448-.448l.242-9.014a.448.448,0,0,1,.446-.436Zm14.421,0h2.379a.448.448,0,0,1,.448.448l.238,8.992a.447.447,0,0,1-.436.457l-2.869,0a.448.448,0,0,1-.448-.448l.242-9.014a.448.448,0,0,1,.446-.436Zm-7.211,0h2.379a.448.448,0,0,1,.448.448l.238,8.992a.447.447,0,0,1-.436.457l-2.869,0a.448.448,0,0,1-.448-.448l.242-9.014a.448.448,0,0,1,.446-.436Zm-11.8,12.847h25.984a.448.448,0,0,1,.448.448V77.65a.448.448,0,0,1-.448.448H98.448A.448.448,0,0,1,98,77.65V76.323A.448.448,0,0,1,98.448,75.875Z" transform="translate(-98 -53.989)" fill="#fff" fill-rule="evenodd"/>
</svg>
