<svg xmlns="http://www.w3.org/2000/svg" width="30.017" height="30.017" viewBox="0 0 35.225 30.175">
  <g id="Sign_in" data-name="Sign in" transform="translate(-2777.716 -1607.943)">
    <g id="noun-profile-5413152" transform="translate(2787.019 1607.943)">
      <path id="Path_471" data-name="Path 471" d="M227.243,43.621a8.631,8.631,0,1,0-2.528,6.093A8.622,8.622,0,0,0,227.243,43.621Zm-15.087,0a6.473,6.473,0,1,1,1.9,4.57A6.466,6.466,0,0,1,212.155,43.621Z" transform="translate(-205.66 -35)" fill="#fff"/>
      <path id="Path_472" data-name="Path 472" d="M157.886,349.65H147.094a7.574,7.574,0,0,0-7.565,7.565,3.233,3.233,0,0,0,3.233,3.233h19.456a3.233,3.233,0,0,0,3.233-3.233,7.574,7.574,0,0,0-7.565-7.565Zm4.332,8.643H142.762a1.078,1.078,0,0,1-1.078-1.078,5.416,5.416,0,0,1,5.41-5.41h10.791a5.417,5.417,0,0,1,5.41,5.41,1.078,1.078,0,0,1-1.078,1.078Z" transform="translate(-139.529 -330.274)" fill="#fff"/>
    </g>
    <g id="noun-plus-5416350" transform="translate(2777.716 1607.943)">
      <path id="Path_517" data-name="Path 517" d="M182.612,107.889a.787.787,0,1,0,0-1.574h-4.722v-4.722a.787.787,0,1,0-1.574,0v4.722h-4.722a.787.787,0,1,0,0,1.574h4.722v4.722a.787.787,0,1,0,1.574,0v-4.722Z" transform="translate(-170.806 -100.806)" fill="#fff"/>
    </g>
  </g>
</svg>
