<svg xmlns="http://www.w3.org/2000/svg" width="30.743" height="30.743" viewBox="0 0 30.743 30.743">
  <path id="sign-in" d="M136.689,67.183V82.065a1.182,1.182,0,1,0,2.365,0V67.183l2.711,2.711a1.182,1.182,0,0,0,1.672-1.672l-4.73-4.73a1.181,1.181,0,0,0-1.672,0l-4.73,4.73a1.182,1.182,0,0,0,1.672,1.672Zm-11.824-6.4v-4.73a1.183,1.183,0,0,1,1.182-1.182H149.7a1.183,1.183,0,0,1,1.182,1.182v4.73a1.182,1.182,0,1,0,2.365,0v-4.73A3.549,3.549,0,0,0,149.7,52.5H126.047a3.549,3.549,0,0,0-3.547,3.547v4.73a1.182,1.182,0,1,0,2.365,0Z" transform="translate(83.247 -122.5) rotate(90)" fill="#fff" fill-rule="evenodd"/>
</svg>
