<svg xmlns="http://www.w3.org/2000/svg" width="13.637" height="14.021" viewBox="0 0 13.637 14.021">
  <g id="sorting" transform="translate(-168.747 -74.857)">
    <path id="Path_560" data-name="Path 560" d="M174.827,88.518a.318.318,0,0,1-.509.256l-5.35-3.945a.542.542,0,1,1,.645-.871l4.132,3.047h0V75.413a.551.551,0,0,1,.522-.556.543.543,0,0,1,.561.541v13.12Zm2,.359a.55.55,0,0,1-.522-.554V75.138a.279.279,0,0,1,.445-.224l5.414,3.994a.542.542,0,0,1-.645.871l-4.134-3.049V88.339a.536.536,0,0,1-.559.539Z" transform="translate(0 0)" fill="#9c9999"/>
  </g>
</svg>
