<svg xmlns="http://www.w3.org/2000/svg" width="30.401" height="30.401" viewBox="0 0 30.401 30.401">
  <path id="Tables" d="M114.832,41.988a2.861,2.861,0,0,0-2.845,2.852v24.7a2.861,2.861,0,0,0,2.845,2.852h24.7a2.867,2.867,0,0,0,2.852-2.852V44.84a2.867,2.867,0,0,0-2.852-2.852Zm0,1.79h24.7A1.042,1.042,0,0,1,140.6,44.84v4.139H113.777V44.84a1.035,1.035,0,0,1,1.055-1.062Zm-1.055,6.989h5.359v5.419h-5.359Zm7.148,0h5.366v5.419h-5.366Zm7.155,0h5.366v5.419h-5.366Zm7.155,0H140.6v5.419h-5.366Zm-21.456,7.207h5.359v5.419h-5.359Zm7.148,0h5.366v5.419h-5.366Zm7.155,0h5.366v5.419H128.08Zm7.155,0H140.6v5.419h-5.366Zm-21.456,7.209h5.359V70.6h-4.3a1.036,1.036,0,0,1-1.055-1.063Zm7.148,0h5.366V70.6h-5.366Zm7.155,0h5.366V70.6H128.08Zm7.155,0H140.6v4.355a1.043,1.043,0,0,1-1.063,1.063h-4.3Z" transform="translate(-111.987 -41.988)" fill="#fff"/>
</svg>
