<svg xmlns="http://www.w3.org/2000/svg" width="16.277" height="16.277" viewBox="0 0 16.277 16.277">
  <g id="time" transform="translate(-250.8 -55.8)">
    <path id="Path_114" data-name="Path 114" d="M178.938,100.8a8.138,8.138,0,1,0,8.138,8.138A8.146,8.146,0,0,0,178.938,100.8Zm0,1.017a7.121,7.121,0,1,1-7.121,7.121A7.113,7.113,0,0,1,178.938,101.817Zm0,1.78a.509.509,0,0,0-.509.509v4.832a.5.5,0,0,0,.151.358l3.052,3.06a.511.511,0,0,0,.723-.723l-2.909-2.9v-4.626a.509.509,0,0,0-.509-.509Z" transform="translate(80 -45)" fill="#464646"/>
  </g>
</svg>
