<svg xmlns="http://www.w3.org/2000/svg" width="24.106" height="24.106" viewBox="0 0 24.106 24.106">
  <g id="noun-setting-3135996" transform="translate(-69.997 -0.002)">
    <path id="Path_394" data-name="Path 394" d="M90.8,8.993,90.387,8c1.405-3.242,1.314-3.339,1.039-3.616l-1.8-1.791-.178-.154h-.207c-.111,0-.436,0-3.168,1.263l-1.005-.415C83.773,0,83.64,0,83.255,0H80.726C80.345,0,80.2,0,79,3.3l-1,.414a16.875,16.875,0,0,0-3.218-1.205h-.241L72.607,4.438c-.3.3-.4.4,1.087,3.592l-.41.991C70,10.317,70,10.442,70,10.85v2.526c0,.4,0,.538,3.3,1.745l.41.988c-1.405,3.242-1.311,3.339-1.039,3.616l1.8,1.793.178.157h.21c.108,0,.431,0,3.165-1.265l1,.417c1.3,3.281,1.432,3.281,1.825,3.281h2.524c.388,0,.525,0,1.733-3.3l1.005-.415A16.9,16.9,0,0,0,89.32,21.6h.241l1.948-1.945c.277-.285.374-.383-1.1-3.563l.407-.991c3.29-1.311,3.29-1.449,3.29-1.844V10.734c0-.4,0-.538-3.3-1.741Zm-8.748,7.278a4.224,4.224,0,1,1,2.974-1.24,4.219,4.219,0,0,1-2.974,1.24Z" fill="#fff"/>
  </g>
</svg>
