<svg xmlns="http://www.w3.org/2000/svg" width="20.997" height="24.06" viewBox="0 0 20.997 24.06">
  <g id="noun-notification-1594277" transform="translate(-215.6 -125.997)">
    <path id="Path_475" data-name="Path 475" d="M224.13,128.87a7.876,7.876,0,0,0-5.906,7.626v5.249a.876.876,0,0,1-.874.876,1.75,1.75,0,1,0,0,3.5h17.489a1.75,1.75,0,1,0,0-3.5.873.873,0,0,1-.874-.876V136.5a7.876,7.876,0,0,0-5.906-7.626v-.9a1.968,1.968,0,1,0-3.937,0Zm-1.094,18.125h6.124a3.062,3.062,0,1,1-6.124,0Z" fill="#fff" fill-rule="evenodd"/>
  </g>
</svg>
