<svg xmlns="http://www.w3.org/2000/svg" width="17.58" height="20.882" viewBox="0 0 17.58 20.882">
  <g id="noun-pdf-4147163" transform="translate(-163.35 -57.452)">
    <path id="Path_328" data-name="Path 328" d="M221,63.5h-.132l.132-.018h0a.62.62,0,0,0-.169-.351l-5.488-5.486a.588.588,0,0,0-.1-.082l-.026-.016a.967.967,0,0,0-.087-.047l-.047-.013a.372.372,0,0,0-.077-.024.706.706,0,0,0-.129-.013h-8.808a.659.659,0,0,0-.659.659V65.2a.659.659,0,0,0,1.319,0V58.778h7.49v4.784a.662.662,0,0,0,.657.659l4.816.026V77.015H206.723V75.994a.659.659,0,0,0-1.319,0v1.68a.66.66,0,0,0,.659.659h14.281a.66.66,0,0,0,.659-.659V63.591A.538.538,0,0,0,221,63.5Zm-5.464-.6V59.712l3.212,3.21Z" transform="translate(-40.073)" fill="#fff"/>
    <path id="Path_329" data-name="Path 329" d="M308.908,312.7a.375.375,0,0,0-.216-.185,1.248,1.248,0,0,0-.414-.055h-.446v2.286h.446a.718.718,0,0,0,.556-.19.981.981,0,0,0,.192-.578V313.5a4.7,4.7,0,0,0-.021-.485.907.907,0,0,0-.1-.319Z" transform="translate(-137.678 -242.999)" fill="#fff"/>
    <path id="Path_330" data-name="Path 330" d="M240.792,312.207h-.554v1.237h.554c.343,0,.512-.211.512-.646h0a.675.675,0,0,0-.116-.456A.5.5,0,0,0,240.792,312.207Z" transform="translate(-73.267 -242.755)" fill="#fff"/>
    <path id="Path_331" data-name="Path 331" d="M177.325,252.79H164.009a.659.659,0,0,0-.659.659v6.575a.659.659,0,0,0,.659.659h13.316a.659.659,0,0,0,.659-.659v-6.575a.659.659,0,0,0-.659-.659Zm-8.787,4.412a1.34,1.34,0,0,1-1.007.356h-.559v1.071h-.839v-3.766h1.4a1.184,1.184,0,0,1,1.353,1.319,1.414,1.414,0,0,1-.345,1.021Zm3.6.316a1.671,1.671,0,0,1-.229.6,1.01,1.01,0,0,1-.5.39,2.391,2.391,0,0,1-.818.119h-1.276v-3.766H170.6a2.615,2.615,0,0,1,.791.1.973.973,0,0,1,.5.345,1.433,1.433,0,0,1,.248.556,4.06,4.06,0,0,1,.066.817,4.584,4.584,0,0,1-.066.833ZM175.2,255.6h-1.6v.989h1.319v.741H173.6v1.3h-.839v-3.766H175.2Z" transform="translate(0 -186.139)" fill="#fff"/>
  </g>
</svg>
