<?xml version="1.0" encoding="UTF-8"?>
<svg width="700pt" height="700pt" version="1.1" viewBox="0 0 700 700" xmlns="http://www.w3.org/2000/svg" >
 <path d="m156.53 41.988c-24.48 0-44.543 20.172-44.543 44.652v386.72c0 24.48 20.062 44.652 44.543 44.652h386.83c24.48 0 44.652-20.172 44.652-44.652v-386.72c0-24.48-20.172-44.652-44.652-44.652zm0 28.027h386.83c9.4531 0 16.652 7.1719 16.652 16.625v64.805h-420v-64.805c0-9.4531 7.0625-16.625 16.516-16.625zm-16.516 109.43h83.918v84.848h-83.914zm111.92 0h84.027v84.848h-84.023zm112.03 0h84.027v84.848h-84.027zm112.03 0h84.027v84.848h-84.027zm-335.97 112.85h83.918v84.848l-83.914-0.003906zm111.92 0h84.027v84.848l-84.023-0.003906zm112.03 0h84.027v84.848l-84.027-0.003906zm112.03 0h84.027v84.848l-84.027-0.003906zm-335.97 112.88h83.918v84.848h-67.402c-9.4531 0-16.516-7.1992-16.516-16.652zm111.92 0h84.027v84.848l-84.023-0.003906zm112.03 0h84.027v84.848l-84.027-0.003906zm112.03 0h84.027v68.195c0 9.4531-7.1992 16.652-16.652 16.652l-67.375-0.003906z"/>
</svg>
