<?xml version="1.0" encoding="UTF-8"?>
<svg width="700pt" height="700pt" version="1.1" viewBox="0 0 700 700" xmlns="http://www.w3.org/2000/svg" >
 <g>
  <path d="m157.5 35h122.5c28.996 0 52.5 28.996 52.5 52.5v122.5c0 28.996-23.504 52.5-52.5 52.5h-122.5c-28.996 0-52.5-28.996-52.5-52.5v-122.5c0-28.996 23.504-52.5 52.5-52.5z"/>
  <path d="m420 35h122.5c28.996 0 52.5 28.996 52.5 52.5v122.5c0 28.996-23.504 52.5-52.5 52.5h-122.5c-28.996 0-52.5-28.996-52.5-52.5v-122.5c0-28.996 23.504-52.5 52.5-52.5z"/>
  <path d="m157.5 297.5h122.5c28.996 0 52.5 28.996 52.5 52.5v122.5c0 28.996-23.504 52.5-52.5 52.5h-122.5c-28.996 0-52.5-28.996-52.5-52.5v-122.5c0-28.996 23.504-52.5 52.5-52.5z"/>
  <path d="m420 297.5h122.5c28.996 0 52.5 28.996 52.5 52.5v122.5c0 28.996-23.504 52.5-52.5 52.5h-122.5c-28.996 0-52.5-28.996-52.5-52.5v-122.5c0-28.996 23.504-52.5 52.5-52.5z"/>
 </g>
</svg>
