<?xml version="1.0" encoding="UTF-8"?>
<svg width="700pt" height="700pt" version="1.1" viewBox="0 0 700 700" xmlns="http://www.w3.org/2000/svg">
 <g>
  <path d="m481.25 74.918h-13.809c-7.4023-23.066-28.785-39.918-54.285-39.918h-126.33c-25.426 0-46.762 16.766-54.215 39.918h-13.859c-28.945 0-52.5 23.555-52.5 52.5v345.08c0 28.945 23.555 52.5 52.5 52.5h262.5c28.945 0 52.5-23.555 52.5-52.5v-345.08c0-28.965-23.555-52.5-52.5-52.5zm17.5 397.58c0 9.6602-7.8398 17.5-17.5 17.5h-262.5c-9.6406 0-17.5-7.8398-17.5-17.5v-345.08c0-9.6406 7.8594-17.5 17.5-17.5h13.809c7.4023 23.066 28.789 39.918 54.266 39.918h126.33c25.426 0 46.777-16.766 54.215-39.918h13.879c9.6602 0 17.5 7.8594 17.5 17.5zm-234.17-380.26c0-12.266 9.9766-22.242 22.242-22.242h126.33c12.266 0 22.242 9.9766 22.242 22.574 0 12.266-9.9766 22.242-22.242 22.242h-126.33c-12.266 0.019532-22.242-9.9727-22.242-22.574z"/>
  <path d="m443.01 290.82h-83.125c-9.6602 0-17.5 7.8242-17.5 17.5 0 9.6758 7.8398 17.5 17.5 17.5h83.125c9.6758 0 17.5-7.8242 17.5-17.5 0-9.6797-7.8203-17.5-17.5-17.5z"/>
  <path d="m443.01 394.59h-83.125c-9.6602 0-17.5 7.8242-17.5 17.5 0 9.6758 7.8398 17.5 17.5 17.5h83.125c9.6758 0 17.5-7.8242 17.5-17.5 0-9.6758-7.8203-17.5-17.5-17.5z"/>
  <path d="m443.01 187.04h-83.125c-9.6602 0-17.5 7.8398-17.5 17.5 0 9.6602 7.8398 17.5 17.5 17.5h83.125c9.6758 0 17.5-7.8398 17.5-17.5 0-9.6602-7.8203-17.5-17.5-17.5z"/>
  <path d="m297.11 175.44-21.086 21.086-6.668-6.668c-6.8438-6.8438-17.902-6.8438-24.746 0s-6.8438 17.902 0 24.746l19.039 19.039c3.4141 3.4141 7.8906 5.1289 12.371 5.1289 4.4805 0 8.9609-1.7148 12.371-5.1289l33.461-33.461c6.8438-6.8438 6.8438-17.902 0-24.746-6.8398-6.8398-17.914-6.8203-24.742 0.003906z"/>
  <path d="m297.11 279.21-21.086 21.086-6.668-6.668c-6.8438-6.8438-17.902-6.8438-24.746 0s-6.8438 17.902 0 24.746l19.039 19.039c3.4141 3.4141 7.8906 5.1289 12.371 5.1289 4.4805 0 8.9609-1.7148 12.371-5.1289l33.461-33.461c6.8438-6.8438 6.8438-17.902 0-24.746-6.8398-6.8359-17.914-6.8359-24.742 0.003907z"/>
  <path d="m283.59 394.59h-0.17578c-9.6602 0-17.414 7.8242-17.414 17.5 0 9.6758 7.9258 17.5 17.586 17.5 9.6602 0 17.5-7.8242 17.5-17.5 0.003907-9.6758-7.8359-17.5-17.496-17.5z"/>
 </g>
</svg>
