<?xml version="1.0" encoding="UTF-8"?>
<svg width="700pt" height="700pt" version="1.1" viewBox="0 0 700 700" xmlns="http://www.w3.org/2000/svg">
 <g>
  <path d="m350 350c-12.887 0-23.332-10.445-23.332-23.332v-163.34c0-12.887 10.445-23.332 23.332-23.332s23.332 10.445 23.332 23.332v163.34c0 12.887-10.445 23.332-23.332 23.332z"/>
  <path d="m350 373.33c-12.887 0-23.332 10.449-23.332 23.336s10.445 23.332 23.332 23.332 23.332-10.445 23.332-23.332-10.445-23.336-23.332-23.336z"/>
  <path d="m116.67 280c0-128.87 104.46-233.33 233.33-233.33s233.33 104.46 233.33 233.33-104.46 233.33-233.33 233.33-233.33-104.46-233.33-233.33zm233.33-186.67c-103.09 0-186.67 83.574-186.67 186.67s83.574 186.67 186.67 186.67 186.67-83.574 186.67-186.67-83.574-186.67-186.67-186.67z" fill-rule="evenodd"/>
 </g>
</svg>
