<?xml version="1.0" encoding="UTF-8"?>
<svg width="700pt" height="700pt" version="1.1" viewBox="0 0 700 700" xmlns="http://www.w3.org/2000/svg">
 <g>
  <path d="m542.5 35h-119.52c-13.926 0-27.277 5.5312-37.125 15.375-9.8438 9.8477-15.375 23.199-15.375 37.125v119.52c0 13.926 5.5312 27.277 15.375 37.125 9.8477 9.8438 23.199 15.375 37.125 15.375h119.52c13.926 0 27.277-5.5312 37.125-15.375 9.8438-9.8477 15.375-23.199 15.375-37.125v-119.52c0-13.926-5.5312-27.277-15.375-37.125-9.8477-9.8438-23.199-15.375-37.125-15.375zm17.5 172.02c0 4.6445-1.8438 9.0938-5.125 12.375s-7.7344 5.125-12.375 5.125h-119.52c-4.6445 0-9.0938-1.8438-12.375-5.125s-5.125-7.7305-5.125-12.375v-119.52c0-4.6406 1.8438-9.0938 5.125-12.375s7.7305-5.125 12.375-5.125h119.52c4.6406 0 9.0938 1.8438 12.375 5.125s5.125 7.7344 5.125 12.375z"/>
  <path d="m277.02 35h-119.52c-13.926 0-27.277 5.5312-37.125 15.375-9.8438 9.8477-15.375 23.199-15.375 37.125v119.52c0 13.926 5.5312 27.277 15.375 37.125 9.8477 9.8438 23.199 15.375 37.125 15.375h119.52c13.926 0 27.277-5.5312 37.125-15.375 9.8438-9.8477 15.375-23.199 15.375-37.125v-119.52c0-13.926-5.5312-27.277-15.375-37.125-9.8477-9.8438-23.199-15.375-37.125-15.375zm17.5 172.02c0 4.6445-1.8438 9.0938-5.125 12.375s-7.7305 5.125-12.375 5.125h-119.52c-4.6406 0-9.0938-1.8438-12.375-5.125s-5.125-7.7305-5.125-12.375v-119.52c0-4.6406 1.8438-9.0938 5.125-12.375s7.7344-5.125 12.375-5.125h119.52c4.6445 0 9.0938 1.8438 12.375 5.125s5.125 7.7344 5.125 12.375z"/>
  <path d="m277.02 300.48h-119.52c-13.926 0-27.277 5.5312-37.125 15.375-9.8438 9.8477-15.375 23.199-15.375 37.125v119.52c0 13.926 5.5312 27.277 15.375 37.125 9.8477 9.8438 23.199 15.375 37.125 15.375h119.52c13.926 0 27.277-5.5312 37.125-15.375 9.8438-9.8477 15.375-23.199 15.375-37.125v-119.52c0-13.926-5.5312-27.277-15.375-37.125-9.8477-9.8438-23.199-15.375-37.125-15.375zm17.5 172.02c0 4.6406-1.8438 9.0938-5.125 12.375s-7.7305 5.125-12.375 5.125h-119.52c-4.6406 0-9.0938-1.8438-12.375-5.125s-5.125-7.7344-5.125-12.375v-119.52c0-4.6445 1.8438-9.0938 5.125-12.375s7.7344-5.125 12.375-5.125h119.52c4.6445 0 9.0938 1.8438 12.375 5.125s5.125 7.7305 5.125 12.375z"/>
  <path d="m558.6 395.15h-58.453v-58.273c0-6.2539-3.332-12.031-8.75-15.156-5.4141-3.125-12.082-3.125-17.5 0-5.4141 3.125-8.75 8.9023-8.75 15.156v58.273h-58.273c-6.2539 0-12.031 3.3359-15.156 8.75-3.125 5.418-3.125 12.086 0 17.5 3.125 5.418 8.9023 8.75 15.156 8.75h58.273v58.453c0 6.25 3.3359 12.027 8.75 15.152 5.418 3.1289 12.086 3.1289 17.5 0 5.418-3.125 8.75-8.9023 8.75-15.152v-58.453h58.453c6.25 0 12.027-3.332 15.152-8.75 3.1289-5.4141 3.1289-12.082 0-17.5-3.125-5.4141-8.9023-8.75-15.152-8.75z"/>
 </g>
</svg>
