<?xml version="1.0" encoding="UTF-8"?>
<svg width="700pt" height="700pt" version="1.1" viewBox="0 0 700 700" xmlns="http://www.w3.org/2000/svg">
 <g>
  <path d="m144.46 401.8 83.648 83.648-92.227 30.625h0.003907c-1.8203 0.53516-3.7031 0.82812-5.5977 0.875-5.6484 0.015625-10.953-2.6953-14.25-7.2773-3.2969-4.582-4.1836-10.473-2.375-15.82z"/>
  <path d="m164.72 372.52 281.49-281.49 92.574 92.574-281.49 281.49z"/>
  <path d="m587.21 113.4c0.074218 13.938-5.4766 27.312-15.398 37.102l-8.2266 8.3984-92.574-92.574 8.2266-8.3984c9.9844-9.5586 23.277-14.895 37.098-14.895 13.824 0 27.113 5.3359 37.102 14.895l18.375 18.375c9.8945 9.8047 15.441 23.168 15.398 37.098z"/>
 </g>
</svg>
