<svg xmlns="http://www.w3.org/2000/svg" width="32.015" height="32.556" viewBox="0 0 32.015 32.556">
  <g id="RTL" transform="translate(-107.073 -32.982)">
    <path id="Path_10" data-name="Path 10" d="M127.556,94.488a.738.738,0,1,1-1.476,0v-8.34H108.61v13.02h8.613a.747.747,0,0,1,0,1.495h-9.362a.738.738,0,0,1-.738-.738V85.41a.738.738,0,0,1,.738-.738h18.957a.738.738,0,0,1,.738.738Z" transform="translate(-0.047 -48.284)" fill="#fff"/>
    <path id="Path_11" data-name="Path 11" d="M127.51,95.871v3.724a4.237,4.237,0,0,1-1.258,3.019,4.281,4.281,0,0,1-3.026,1.251H111.347a4.284,4.284,0,0,1-4.274-4.27V95.871h1.476v3.724a2.767,2.767,0,0,0,.812,1.967,2.823,2.823,0,0,0,1.97.823h11.9a2.786,2.786,0,0,0,1.971-.823,2.731,2.731,0,0,0,.834-1.967V95.871Z" transform="translate(0 -58.744)" fill="#fff"/>
    <path id="Path_12" data-name="Path 12" d="M213,37.865H205.91V34.813a1.833,1.833,0,0,1,1.834-1.831h4.167a1.778,1.778,0,0,1,1.28.539,1.819,1.819,0,0,1,.539,1.292v.7h-1.476v-.7a.339.339,0,0,0-.107-.24.336.336,0,0,0-.243-.1h-4.159a.369.369,0,0,0-.255.1.325.325,0,0,0-.092.24v1.568H213Z" transform="translate(-92.323)" fill="#fff"/>
    <path id="Path_13" data-name="Path 13" d="M200.26,173.559a.738.738,0,0,1,1.476,0v3a.738.738,0,0,1-1.476,0Z" transform="translate(-87.046 -130.624)" fill="#fff"/>
    <path id="Path_14" data-name="Path 14" d="M303.69,173.559a.738.738,0,0,1,1.476,0v3a.738.738,0,0,1-1.476,0Z" transform="translate(-183.66 -130.624)" fill="#fff"/>
    <path id="Path_15" data-name="Path 15" d="M195.993,250.167l11.458-5.753a.693.693,0,0,1,.664,0l11.44,5.753a.738.738,0,0,1,.328.989.682.682,0,0,1-.328.325l-11.44,5.753a.694.694,0,0,1-.664,0l-11.458-5.757a.738.738,0,0,1-.325-.989.693.693,0,0,1,.325-.325Zm11.787-4.27-9.8,4.93,9.8,4.923,9.794-4.923Z" transform="translate(-82.684 -197.419)" fill="#fff"/>
    <path id="Path_16" data-name="Path 16" d="M254.125,353.539a.738.738,0,0,1,1.476,0v6.1l-.3.221a16.44,16.44,0,0,1-9.267,2.65,15.537,15.537,0,0,1-8.956-2.639l-.317-.221v-3.768a.738.738,0,1,1,1.476,0v2.989a14.189,14.189,0,0,0,7.787,2.144,15.305,15.305,0,0,0,8.082-2.133Z" transform="translate(-121.139 -298.743)" fill="#fff"/>
    <path id="Path_17" data-name="Path 17" d="M519.07,450.991l1.8,3.587h0a.758.758,0,0,1-.664,1.074h-3.6a.738.738,0,0,1-.738-.738.818.818,0,0,1,.1-.369l1.775-3.524h0a.738.738,0,0,1,.989-.325.7.7,0,0,1,.328.325Zm-.063,3.177-.591-1.188-.6,1.188Z" transform="translate(-381.862 -390.113)" fill="#fff"/>
    <path id="Path_18" data-name="Path 18" d="M543.09,342.95h1.487v7.805H543.09Z" transform="translate(-407.284 -289.541)" fill="#fff"/>
  </g>
</svg>
