<?xml version="1.0" encoding="UTF-8"?>
<svg width="700pt" height="700pt" version="1.1" viewBox="0 0 700 700" xmlns="http://www.w3.org/2000/svg">
 <g fill-rule="evenodd">
  <path d="m315 118.07h163.33v326.67h-163.33v-70c0-12.879-10.453-23.332-23.332-23.332-12.879 0-23.332 10.453-23.332 23.332v70c0 25.762 20.883 46.668 46.668 46.668h163.33c25.785 0 46.668-20.906 46.668-46.668v-326.69c0-25.762-20.883-46.668-46.668-46.645h-163.33c-25.785-0.023438-46.668 20.883-46.668 46.645v70.023c0 12.855 10.453 23.332 23.332 23.332 12.879 0 23.332-10.477 23.332-23.332z"/>
  <path d="m310.17 251.23 30.172 30.172c0-0.023438-30.172 30.148-30.172 30.148-9.1016 9.125-9.1016 23.895 0 33.016 9.1016 9.1016 23.895 9.1016 32.992 0l46.668-46.668c9.125-9.125 9.125-23.895 0-33.016l-46.668-46.668c-9.1016-9.1016-23.895-9.1016-32.992 0-9.1016 9.125-9.1016 23.895 0 33.016z"/>
  <path d="m361.67 258.07h-163.33c-12.879 0-23.332 10.453-23.332 23.332 0 12.855 10.453 23.332 23.332 23.332h163.33c12.879 0 23.332-10.477 23.332-23.332 0-12.879-10.453-23.332-23.332-23.332z"/>
 </g>
</svg>
