<?xml version="1.0" encoding="UTF-8"?>
<svg width="700pt" height="700pt" version="1.1" viewBox="0 0 700 700" xmlns="http://www.w3.org/2000/svg">
 <path d="m332.5 269.75v220.25c0 9.6602 7.8398 17.5 17.5 17.5s17.5-7.8398 17.5-17.5v-220.25l40.129 40.125c6.8242 6.8281 17.918 6.8281 24.742 0 6.8281-6.8242 6.8281-17.918 0-24.742l-70-70c-6.8242-6.8438-17.918-6.8438-24.742 0l-70 70c-6.8281 6.8242-6.8281 17.918 0 24.742 6.8242 6.8281 17.918 6.8281 24.742 0zm-175-94.746v-70c0-4.6367 1.8359-9.1016 5.1289-12.371 3.2695-3.293 7.7344-5.1289 12.371-5.1289h350c4.6367 0 9.1016 1.8359 12.371 5.1289 3.293 3.2695 5.1289 7.7344 5.1289 12.371v70c0 9.6602 7.8398 17.5 17.5 17.5s17.5-7.8398 17.5-17.5v-70c0-13.93-5.5312-27.281-15.383-37.117-9.8359-9.8516-23.188-15.383-37.117-15.383h-350c-13.93 0-27.281 5.5312-37.117 15.383-9.8516 9.8359-15.383 23.188-15.383 37.117v70c0 9.6602 7.8398 17.5 17.5 17.5s17.5-7.8398 17.5-17.5z" fill-rule="evenodd"/>
</svg>
