<?xml version="1.0" encoding="UTF-8"?>
<svg width="700pt" height="700pt" version="1.1" viewBox="0 0 700 700" xmlns="http://www.w3.org/2000/svg">
 <g>
  <path d="m490 175c0-37.129-14.75-72.738-41.004-98.996-26.258-26.254-61.867-41.004-98.996-41.004s-72.738 14.75-98.996 41.004c-26.254 26.258-41.004 61.867-41.004 98.996s14.75 72.738 41.004 98.996c26.258 26.254 61.867 41.004 98.996 41.004 37.117-0.042969 72.703-14.805 98.949-41.051 26.246-26.246 41.008-61.832 41.051-98.949zm-245 0c0-27.848 11.062-54.555 30.754-74.246s46.398-30.754 74.246-30.754 54.555 11.062 74.246 30.754 30.754 46.398 30.754 74.246-11.062 54.555-30.754 74.246-46.398 30.754-74.246 30.754c-27.84-0.027344-54.531-11.098-74.215-30.785-19.688-19.684-30.758-46.375-30.785-74.215z"/>
  <path d="m437.62 349.65h-175.24c-32.57 0.039062-63.797 12.992-86.828 36.023s-35.984 54.258-36.023 86.828c0 13.926 5.5312 27.277 15.379 37.125 9.8438 9.8438 23.199 15.375 37.121 15.375h315.95c13.922 0 27.277-5.5312 37.121-15.375 9.8477-9.8477 15.379-23.199 15.379-37.125-0.039062-32.57-12.992-63.797-36.023-86.828s-54.258-35.984-86.828-36.023zm70.352 140.35h-315.95c-4.6406 0-9.0938-1.8438-12.375-5.125s-5.125-7.7344-5.125-12.375c0.027344-23.289 9.293-45.621 25.762-62.09s38.797-25.73 62.09-25.762h175.24c23.293 0.03125 45.621 9.293 62.09 25.762s25.734 38.801 25.762 62.09c0 4.6406-1.8438 9.0938-5.125 12.375s-7.7344 5.125-12.375 5.125z"/>
 </g>
</svg>
