<?xml version="1.0" encoding="UTF-8"?>
<svg width="700pt" height="700pt" version="1.1" viewBox="0 0 700 700" xmlns="http://www.w3.org/2000/svg">
 <g>
  <path d="m161.4 166.25 31.168 342.84h-0.003906c0.39844 4.3477 2.4062 8.3906 5.6328 11.336 3.2227 2.9453 7.4336 4.5742 11.801 4.5742h280c4.3672 0 8.5781-1.6289 11.801-4.5742 3.2266-2.9453 5.2344-6.9883 5.6328-11.336l31.164-342.84zm119.7 306.2c-0.38281 0.035156-0.75 0.050781-1.1172 0.050781-6.8203-0.007812-12.5-5.2344-13.066-12.031l-17.5-210c-0.29297-3.4688 0.80859-6.9141 3.0586-9.5703 2.2461-2.6602 5.4609-4.3164 8.9297-4.6055 7.2266-0.60547 13.574 4.7617 14.176 11.988l17.5 210c0.60156 7.2227-4.7656 13.566-11.988 14.168zm82.023-13.074c0 7.25-5.875 13.125-13.125 13.125s-13.125-5.875-13.125-13.125v-210c0-7.25 5.875-13.125 13.125-13.125s13.125 5.875 13.125 13.125zm69.957 1.0938c-0.56641 6.7969-6.2461 12.023-13.066 12.031-0.36719 0-0.73438-0.015625-1.1094-0.050781-3.4688-0.28906-6.6836-1.9453-8.9297-4.6055-2.25-2.6562-3.3516-6.1016-3.0586-9.5703l17.5-210c0.60156-7.2266 6.9492-12.594 14.176-11.988 7.2266 0.60547 12.594 6.9492 11.988 14.176z"/>
  <path d="m560 105h-122.5v-35c0-4.6406-1.8438-9.0938-5.125-12.375s-7.7344-5.125-12.375-5.125h-140c-4.6406 0-9.0938 1.8438-12.375 5.125s-5.125 7.7344-5.125 12.375v35h-122.5c-6.2539 0-12.031 3.3359-15.156 8.75s-3.125 12.086 0 17.5 8.9023 8.75 15.156 8.75h420c6.2539 0 12.031-3.3359 15.156-8.75s3.125-12.086 0-17.5-8.9023-8.75-15.156-8.75z"/>
 </g>
</svg>
