<?xml version="1.0" encoding="UTF-8"?>
<svg width="700pt" height="700pt" version="1.1" viewBox="0 0 700 700" xmlns="http://www.w3.org/2000/svg">
 <g>
  <path d="m517.05 525h-337.09c-10.633-0.046875-20.816-4.3125-28.309-11.855-7.4961-7.5469-11.688-17.758-11.66-28.395v-399.44c-0.015625-7.3828 2-14.629 5.8281-20.945 3.8281-6.3164 9.3203-11.457 15.871-14.859 6.418-3.3594 13.637-4.8828 20.863-4.4102 7.2266 0.47656 14.184 2.9336 20.105 7.1055 5.2148 4.1875 11.777 6.3398 18.461 6.0547 7.9688 0.12891 15.684-2.8242 21.527-8.2422 11.91-9.668 26.781-14.945 42.121-14.945s30.215 5.2773 42.121 14.945c5.9141 5.3047 13.582 8.2383 21.527 8.2383 7.9453 0 15.609-2.9336 21.523-8.2383 11.922-9.6719 26.801-14.945 42.148-14.945s30.23 5.2734 42.148 14.945c5.8516 5.4219 13.57 8.375 21.543 8.2422 6.7227 0.28906 13.32-1.875 18.57-6.0898 5.9219-4.168 12.879-6.6211 20.105-7.0977 7.2227-0.47656 14.441 1.0469 20.859 4.4023 6.5586 3.4062 12.051 8.5469 15.879 14.867 3.8242 6.3164 5.8398 13.566 5.8203 20.957v399.45c0.03125 10.637-4.1641 20.848-11.656 28.395-7.4961 7.543-17.676 11.809-28.312 11.855zm-337.05-445.01c-0.75781 0.015624-1.5039 0.21094-2.168 0.57812-1.793 0.89063-2.9023 2.7422-2.8359 4.7422v399.44c-0.039062 1.3555 0.46484 2.6719 1.3984 3.6562 0.92969 0.98438 2.2148 1.5586 3.5703 1.5938h337.09c2.8203-0.085938 5.0391-2.4297 4.9688-5.25v-399.45c0.078124-2.0078-1.0312-3.8711-2.832-4.7617-1.4883-0.86719-3.3516-0.75781-4.7266 0.28125-11.156 8.3164-24.762 12.691-38.676 12.441-15.375 0.14844-30.309-5.1445-42.156-14.945-5.9219-5.3086-13.59-8.2422-21.543-8.2422-7.9492 0-15.621 2.9336-21.543 8.2422-11.91 9.668-26.789 14.949-42.129 14.949-15.344 0-30.219-5.2812-42.133-14.949-5.9062-5.3047-13.566-8.2422-21.508-8.2422s-15.602 2.9375-21.508 8.2422c-11.84 9.8008-26.77 15.098-42.141 14.945-13.852 0.23438-27.391-4.1289-38.5-12.406-0.75781-0.56641-1.6797-0.86719-2.625-0.85937z"/>
  <path d="m265.74 210c0 11.59-9.3945 20.984-20.984 20.984-11.586 0-20.98-9.3945-20.98-20.984s9.3945-20.984 20.98-20.984c11.59 0 20.984 9.3945 20.984 20.984"/>
  <path d="m446.25 227.5h-145.02c-6.25 0-12.027-3.3359-15.156-8.75-3.125-5.4141-3.125-12.086 0-17.5 3.1289-5.4141 8.9062-8.75 15.156-8.75h145.02c6.2539 0 12.031 3.3359 15.156 8.75s3.125 12.086 0 17.5-8.9023 8.75-15.156 8.75z"/>
  <path d="m265.74 297.5c0 11.59-9.3945 20.984-20.984 20.984-11.586 0-20.98-9.3945-20.98-20.984s9.3945-20.984 20.98-20.984c11.59 0 20.984 9.3945 20.984 20.984"/>
  <path d="m446.25 315h-145.02c-6.25 0-12.027-3.3359-15.156-8.75-3.125-5.4141-3.125-12.086 0-17.5 3.1289-5.4141 8.9062-8.75 15.156-8.75h145.02c6.2539 0 12.031 3.3359 15.156 8.75s3.125 12.086 0 17.5-8.9023 8.75-15.156 8.75z"/>
  <path d="m265.74 385c0 11.59-9.3945 20.984-20.984 20.984-11.586 0-20.98-9.3945-20.98-20.984s9.3945-20.984 20.98-20.984c11.59 0 20.984 9.3945 20.984 20.984"/>
  <path d="m446.25 402.5h-145.02c-6.25 0-12.027-3.3359-15.156-8.75-3.125-5.4141-3.125-12.086 0-17.5 3.1289-5.4141 8.9062-8.75 15.156-8.75h145.02c6.2539 0 12.031 3.3359 15.156 8.75s3.125 12.086 0 17.5-8.9023 8.75-15.156 8.75z"/>
 </g>
</svg>
