<?xml version="1.0" encoding="UTF-8"?>
<svg width="700pt" height="700pt" version="1.1" viewBox="0 0 700 700" xmlns="http://www.w3.org/2000/svg">
 <path d="m150.68 415.87h398.64c4.6367 0 8.3984 3.7617 8.3984 8.3984v24.871c0 4.6367-3.7617 8.3984-8.3984 8.3984h-398.64c-4.6367 0-8.3984-3.7617-8.3984-8.3984v-24.871c0-4.6367 3.7617-8.3984 8.3984-8.3984zm202.83-361.11 209.33 97.383c4.1992 1.9375 6.0391 6.9258 4.1016 11.125-1.4141 3.0625-4.4453 4.8672-7.6133 4.875l-418.65 0.011719c-4.6367 0-8.3984-3.7617-8.3984-8.3984 0-3.5586 2.2227-6.6094 5.3516-7.832l208.86-97.164c2.3164-1.0703 4.875-0.98438 7.0234 0zm-247.11 120.21h487.2c4.6367 0 8.3984 3.7617 8.3984 8.3984v24.871c0 4.6367-3.7617 8.3984-8.3984 8.3984h-487.2c-4.6367 0-8.3984-3.7617-8.3984-8.3984v-24.871c0-4.6367 3.7617-8.3984 8.3984-8.3984zm86.098 48.504 44.602-0.019531c4.6367 0 8.3984 3.7617 8.3984 8.3984l4.4648 168.61c0.10547 4.6172-3.5508 8.4609-8.168 8.5664l-53.793 0.03125c-4.6367 0-8.3984-3.7617-8.3984-8.3984l4.5312-169.01c0.10547-4.5508 3.8359-8.168 8.3672-8.1836zm270.4 0 44.602-0.019531c4.6367 0 8.3984 3.7617 8.3984 8.3984l4.4648 168.61c0.10547 4.6172-3.5508 8.4609-8.168 8.5664l-53.793 0.03125c-4.6367 0-8.3984-3.7617-8.3984-8.3984l4.5312-169.01c0.10547-4.5508 3.8359-8.168 8.3672-8.1836zm-135.2 0 44.602-0.019531c4.6367 0 8.3984 3.7617 8.3984 8.3984l4.4648 168.61c0.10547 4.6172-3.5508 8.4609-8.168 8.5664l-53.793 0.03125c-4.6367 0-8.3984-3.7617-8.3984-8.3984l4.5312-169.01c0.10547-4.5508 3.8359-8.168 8.3672-8.1836zm-221.3 240.88h487.2c4.6367 0 8.3984 3.7617 8.3984 8.3984v24.871c0 4.6367-3.7617 8.3984-8.3984 8.3984h-487.2c-4.6367 0-8.3984-3.7617-8.3984-8.3984v-24.871c0-4.6367 3.7617-8.3984 8.3984-8.3984z" fill-rule="evenodd"/>
</svg>
