<?xml version="1.0" encoding="UTF-8"?>
<svg width="700pt" height="700pt" version="1.1" viewBox="0 0 700 700" xmlns="http://www.w3.org/2000/svg">
 <g>
  <path d="m534.1 52.5h-259.88c-11.512 0-22.551 4.5742-30.691 12.711-8.1367 8.1406-12.711 19.18-12.711 30.688v259.88c0 11.512 4.5742 22.551 12.711 30.691 8.1406 8.1367 19.18 12.711 30.691 12.711h259.88c11.508 0 22.547-4.5742 30.688-12.711 8.1367-8.1406 12.711-19.18 12.711-30.691v-259.88c0-11.508-4.5742-22.547-12.711-30.688-8.1406-8.1367-19.18-12.711-30.688-12.711zm-42.352 190.75h-70v70c0 6.2539-3.3359 12.031-8.75 15.156s-12.086 3.125-17.5 0-8.75-8.9023-8.75-15.156v-70h-70c-6.2539 0-12.031-3.3359-15.156-8.75s-3.125-12.086 0-17.5 8.9023-8.75 15.156-8.75h70v-70c0-6.2539 3.3359-12.031 8.75-15.156s12.086-3.125 17.5 0 8.75 8.9023 8.75 15.156v70h70c6.2539 0 12.031 3.3359 15.156 8.75s3.125 12.086 0 17.5-8.9023 8.75-15.156 8.75z"/>
  <path d="m195.82 355.77v-194.95h-29.926c-11.508 0-22.547 4.5742-30.688 12.711-8.1367 8.1406-12.711 19.18-12.711 30.691v259.88c0 11.508 4.5742 22.547 12.711 30.688 8.1406 8.1367 19.18 12.711 30.688 12.711h259.88c11.512 0 22.551-4.5742 30.691-12.711 8.1367-8.1406 12.711-19.18 12.711-30.688v-29.926h-194.95c-20.781-0.046875-40.695-8.3203-55.387-23.016-14.695-14.691-22.969-34.605-23.016-55.387z"/>
 </g>
</svg>
