<?xml version="1.0" encoding="UTF-8"?>
<svg width="700pt" height="700pt" version="1.1" viewBox="0 0 700 700" xmlns="http://www.w3.org/2000/svg">
 <path d="m577.5 332.5h-52.5v-52.5c0-9.6641-7.8281-17.5-17.5-17.5h-140v-35h52.5c19.293 0 35-15.695 35-35v-140c0-19.305-15.707-35-35-35h-140c-19.293 0-35 15.695-35 35v140c0 19.305 15.707 35 35 35h52.5v35h-140c-9.6719 0-17.5 7.8359-17.5 17.5v52.5h-52.5c-19.293 0-35 15.695-35 35v140c0 19.305 15.707 35 35 35h140c19.293 0 35-15.695 35-35v-140c0-19.305-15.707-35-35-35h-52.5v-35h280v35h-52.5c-19.293 0-35 15.695-35 35v140c0 19.305 15.707 35 35 35h140c19.293 0 35-15.695 35-35v-140c0-19.305-15.707-35-35-35zm-297.5-280h140l-0.050781 140h-139.95zm-17.551 455h-139.95v-140h140zm315 0h-139.95v-140h140z"/>
</svg>
